<svg xmlns="http://www.w3.org/2000/svg" width="820" height="220" viewBox="0 0 820 220" role="img" aria-labelledby="title desc">
  <title id="title">BITORA</title>
  <desc id="desc">Logo de BITORA con isotipo teal y wordmark oscuro.</desc>
  <rect width="820" height="220" fill="#ffffff"/>
  <g transform="translate(50 50)">
    <rect width="120" height="120" rx="18" fill="#0b7f86"/>
    <path d="M39 30h43c23 0 36 10 36 28 0 11-6 19-17 24 14 5 22 15 22 30 0 22-16 36-43 36H39V30Zm36 46c12 0 19-5 19-14 0-9-7-14-19-14H60v28h15Zm4 52c14 0 22-6 22-17 0-11-8-17-22-17H60v34h19Z" fill="#ffffff" transform="scale(.72) translate(25 6)"/>
    <path d="M27 25h66v16H43v22h38v16H43v26h52v16H27V25Z" fill="none" stroke="#ffffff" stroke-width="8" stroke-linejoin="round" opacity=".92"/>
  </g>
  <text x="208" y="135" fill="#07141b" font-family="Inter, Manrope, Arial, Helvetica, sans-serif" font-size="86" font-weight="900" letter-spacing="3">BITORA</text>
</svg>
